IBM Plex Thai-Bold.ufo
<glyph name="u02D7" format="1">
  <advance width="300"/>
  <unicode hex="02D7"/>
  <outline>
    <contour>
      <point x="10" y="199" type="line" name="hr00"/>
      <point x="290" y="199" type="line"/>
      <point x="290" y="343" type="line"/>
      <point x="10" y="343" type="line"/>
    </contour>
  </outline>
</glyph>
<glyph name="khoKhon-thai" format="1">
  <advance width="691"/>
  <unicode hex="0E05"/>
  <outline>
    <contour>
      <point x="63" y="0" type="line" name="hr00"/>
      <point x="208" y="0" type="line"/>
      <point x="208" y="86" type="line" smooth="yes"/>
      <point x="208" y="147"/>
      <point x="250" y="166"/>
      <point x="336" y="166" type="curve" smooth="yes"/>
      <point x="373" y="166" type="line"/>
      <point x="373" y="304" type="line"/>
      <point x="347" y="304" type="line" smooth="yes"/>
      <point x="265" y="304"/>
      <point x="225" y="248"/>
      <point x="213" y="190" type="curve"/>
      <point x="208" y="190" type="line"/>
      <point x="208" y="385" type="line" smooth="yes"/>
      <point x="208" y="425"/>
      <point x="224" y="444"/>
      <point x="251" y="444" type="curve" smooth="yes"/>
      <point x="284" y="444"/>
      <point x="295" y="414"/>
      <point x="301" y="372" type="curve"/>
      <point x="389" y="372" type="line"/>
      <point x="395" y="414"/>
      <point x="407" y="444"/>
      <point x="440" y="444" type="curve" smooth="yes"/>
      <point x="467" y="444"/>
      <point x="483" y="425"/>
      <point x="483" y="385" type="curve" smooth="yes"/>
      <point x="483" y="0" type="line"/>
      <point x="628" y="0" type="line"/>
      <point x="628" y="405" type="line" smooth="yes"/>
      <point x="628" y="506"/>
      <point x="572" y="566"/>
      <point x="484" y="566" type="curve" smooth="yes"/>
      <point x="413" y="566"/>
      <point x="359" y="529"/>
      <point x="349" y="466" type="curve"/>
      <point x="342" y="466" type="line"/>
      <point x="332" y="529"/>
      <point x="277" y="566"/>
      <point x="207" y="566" type="curve" smooth="yes"/>
      <point x="119" y="566"/>
      <point x="63" y="506"/>
      <point x="63" y="405" type="curve" smooth="yes"/>
    </contour>
    <contour>
      <point x="628.0" y="0.0" type="move" name="bottomright"/>
    </contour>
    <contour>
      <point x="345.0" y="558.0" type="move" name="top"/>
    </contour>
    <contour>
      <point x="628.0" y="600.0" type="move" name="topright"/>
    </contour>
  </outline>
</glyph>
<glyph name="choChang-thai" format="1">
  <advance width="566"/>
  <unicode hex="0E0A"/>
  <outline>
    <contour>
      <point x="284" y="-12" type="curve" smooth="yes" name="hr00"/>
      <point x="425" y="-12"/>
      <point x="516" y="76"/>
      <point x="516" y="221" type="curve" smooth="yes"/>
      <point x="516" y="329"/>
      <point x="481" y="387"/>
      <point x="415" y="409" type="curve"/>
      <point x="415" y="416" type="line"/>
      <point x="499" y="431"/>
      <point x="519" y="478"/>
      <point x="519" y="528" type="curve" smooth="yes"/>
      <point x="519" y="578" type="line"/>
      <point x="375" y="578" type="line"/>
      <point x="375" y="515" type="line" smooth="yes"/>
      <point x="375" y="471"/>
      <point x="350" y="456"/>
      <point x="318" y="456" type="curve" smooth="yes"/>
      <point x="302" y="456" type="line"/>
      <point x="302" y="346" type="line"/>
      <point x="308" y="346" type="line" smooth="yes"/>
      <point x="353" y="346"/>
      <point x="362" y="317"/>
      <point x="362" y="265" type="curve" smooth="yes"/>
      <point x="362" y="188" type="line" smooth="yes"/>
      <point x="362" y="138"/>
      <point x="332" y="109"/>
      <point x="281" y="109" type="curve" smooth="yes"/>
      <point x="231" y="109"/>
      <point x="201" y="139"/>
      <point x="201" y="190" type="curve" smooth="yes"/>
      <point x="201" y="217" type="line" smooth="yes"/>
      <point x="201" y="266"/>
      <point x="216" y="292"/>
      <point x="234" y="329" type="curve" smooth="yes"/>
      <point x="259" y="380"/>
      <point x="269" y="418"/>
      <point x="269" y="456" type="curve" smooth="yes"/>
      <point x="269" y="460" type="line" smooth="yes"/>
      <point x="269" y="517"/>
      <point x="227" y="554"/>
      <point x="152" y="554" type="curve" smooth="yes"/>
      <point x="41" y="554" type="line"/>
      <point x="41" y="433" type="line"/>
      <point x="126" y="433" type="line"/>
      <point x="126" y="426" type="line" smooth="yes"/>
      <point x="126" y="393"/>
      <point x="110" y="357"/>
      <point x="91" y="328" type="curve" smooth="yes"/>
      <point x="71" y="298"/>
      <point x="47" y="261"/>
      <point x="47" y="187" type="curve" smooth="yes"/>
      <point x="47" y="52"/>
      <point x="142" y="-12"/>
    </contour>
    <contour>
      <point x="513.0" y="0.0" type="move" name="bottomright"/>
    </contour>
    <contour>
      <point x="280.0" y="558.0" type="move" name="top"/>
    </contour>
    <contour>
      <point x="519.0" y="600.0" type="move" name="topright"/>
    </contour>
  </outline>
</glyph>
<glyph name="doChada-thai" format="1">
  <advance width="647"/>
  <unicode hex="0E0E"/>
  <outline>
    <contour>
      <point x="199" y="-250" type="line" name="hr00"/>
      <point x="218" y="-207"/>
      <point x="268" y="-170"/>
      <point x="331" y="-170" type="curve" smooth="yes"/>
      <point x="394" y="-170"/>
      <point x="433" y="-207"/>
      <point x="453" y="-250" type="curve"/>
      <point x="584" y="-250" type="line"/>
      <point x="584" y="332" type="line" smooth="yes"/>
      <point x="584" y="472"/>
      <point x="485" y="566"/>
      <point x="321" y="566" type="curve" smooth="yes"/>
      <point x="164" y="566"/>
      <point x="55" y="473"/>
      <point x="43" y="326" type="curve"/>
      <point x="130" y="291" type="line"/>
      <point x="130" y="115" type="line"/>
      <point x="81" y="115" type="line"/>
      <point x="81" y="0" type="line"/>
      <point x="131" y="0" type="line" smooth="yes"/>
      <point x="232" y="0"/>
      <point x="278" y="51"/>
      <point x="278" y="144" type="curve" smooth="yes"/>
      <point x="278" y="280" type="line" smooth="yes"/>
      <point x="278" y="328"/>
      <point x="264" y="347"/>
      <point x="216" y="366" type="curve" smooth="yes"/>
      <point x="181" y="380" type="line"/>
      <point x="201" y="419"/>
      <point x="248" y="449"/>
      <point x="311" y="449" type="curve" smooth="yes"/>
      <point x="395" y="449"/>
      <point x="436" y="399"/>
      <point x="436" y="313" type="curve" smooth="yes"/>
      <point x="436" y="-156" type="line"/>
      <point x="430" y="-156" type="line"/>
      <point x="409" y="-100"/>
      <point x="363" y="-65"/>
      <point x="281" y="-65" type="curve" smooth="yes"/>
      <point x="197" y="-65"/>
      <point x="135" y="-106"/>
      <point x="94" y="-165" type="curve"/>
    </contour>
    <contour>
      <point x="315.0" y="558.0" type="move" name="top"/>
    </contour>
    <contour>
      <point x="584.0" y="600.0" type="move" name="topright"/>
    </contour>
  </outline>
</glyph>
<glyph name="toTao-thai" format="1">
  <advance width="677"/>
  <unicode hex="0E15"/>
  <outline>
    <contour>
      <point x="299" y="-12" type="curve" smooth="yes" name="hr00"/>
      <point x="323" y="-12"/>
      <point x="357" y="-9"/>
      <point x="372" y="-4" type="curve"/>
      <point x="355" y="114" type="line"/>
      <point x="342" y="111"/>
      <point x="333" y="110"/>
      <point x="321" y="110" type="curve" smooth="yes"/>
      <point x="223" y="110"/>
      <point x="195" y="156"/>
      <point x="195" y="229" type="curve" smooth="yes"/>
      <point x="195" y="338" type="line" smooth="yes"/>
      <point x="195" y="407"/>
      <point x="209" y="444"/>
      <point x="245" y="444" type="curve" smooth="yes"/>
      <point x="276" y="444"/>
      <point x="285" y="414"/>
      <point x="290" y="372" type="curve"/>
      <point x="378" y="372" type="line"/>
      <point x="383" y="414"/>
      <point x="395" y="444"/>
      <point x="425" y="444" type="curve" smooth="yes"/>
      <point x="450" y="444"/>
      <point x="466" y="424"/>
      <point x="466" y="384" type="curve" smooth="yes"/>
      <point x="466" y="0" type="line"/>
      <point x="614" y="0" type="line"/>
      <point x="614" y="405" type="line" smooth="yes"/>
      <point x="614" y="506"/>
      <point x="558" y="566"/>
      <point x="474" y="566" type="curve" smooth="yes"/>
      <point x="403" y="566"/>
      <point x="352" y="529"/>
      <point x="342" y="466" type="curve"/>
      <point x="335" y="466" type="line"/>
      <point x="325" y="529"/>
      <point x="282" y="566"/>
      <point x="217" y="566" type="curve" smooth="yes"/>
      <point x="100" y="566"/>
      <point x="40" y="466"/>
      <point x="40" y="279" type="curve" smooth="yes"/>
      <point x="40" y="85"/>
      <point x="134" y="-12"/>
    </contour>
    <contour>
      <point x="614.0" y="0.0" type="move" name="bottomright"/>
    </contour>
    <contour>
      <point x="338.0" y="558.0" type="move" name="top"/>
    </contour>
    <contour>
      <point x="614.0" y="600.0" type="move" name="topright"/>
    </contour>
  </outline>
</glyph>
<glyph name="thoThahan-thai" format="1">
  <advance width="627"/>
  <unicode hex="0E17"/>
  <outline>
    <contour>
      <point x="69" y="0" type="line" name="hr00"/>
      <point x="217" y="0" type="line"/>
      <point x="217" y="360" type="line" smooth="yes"/>
      <point x="217" y="416"/>
      <point x="270" y="446"/>
      <point x="322" y="446" type="curve" smooth="yes"/>
      <point x="390" y="446"/>
      <point x="416" y="406"/>
      <point x="416" y="335" type="curve" smooth="yes"/>
      <point x="416" y="0" type="line"/>
      <point x="564" y="0" type="line"/>
      <point x="564" y="348" type="line" smooth="yes"/>
      <point x="564" y="487"/>
      <point x="502" y="566"/>
      <point x="384" y="566" type="curve" smooth="yes"/>
      <point x="289" y="566"/>
      <point x="242" y="516"/>
      <point x="222" y="461" type="curve"/>
      <point x="217" y="461" type="line"/>
      <point x="217" y="554" type="line"/>
      <point x="69" y="554" type="line"/>
    </contour>
    <contour>
      <point x="564.0" y="0.0" type="move" name="bottomright"/>
    </contour>
    <contour>
      <point x="322.0" y="558.0" type="move" name="top"/>
    </contour>
    <contour>
      <point x="564.0" y="600.0" type="move" name="topright"/>
    </contour>
  </outline>
</glyph>
<glyph name="soSua-thai" format="1">
  <advance width="640"/>
  <unicode hex="0E2A"/>
  <outline>
    <contour>
      <point x="224" y="-10" type="curve" smooth="yes" name="hr00"/>
      <point x="246" y="-10"/>
      <point x="284" y="-8"/>
      <point x="296" y="-3" type="curve"/>
      <point x="286" y="76" type="line"/>
      <point x="278" y="74"/>
      <point x="270" y="74"/>
      <point x="262" y="74" type="curve" smooth="yes"/>
      <point x="221" y="74"/>
      <point x="199" y="101"/>
      <point x="199" y="142" type="curve" smooth="yes"/>
      <point x="199" y="159" type="line" smooth="yes"/>
      <point x="199" y="202"/>
      <point x="225" y="223"/>
      <point x="277" y="223" type="curve" smooth="yes"/>
      <point x="389" y="223" type="line"/>
      <point x="389" y="0" type="line"/>
      <point x="537" y="0" type="line"/>
      <point x="537" y="351" type="line" smooth="yes"/>
      <point x="537" y="392"/>
      <point x="530" y="428"/>
      <point x="515" y="457" type="curve"/>
      <point x="515" y="461" type="line"/>
      <point x="647" y="461" type="line"/>
      <point x="647" y="583" type="line"/>
      <point x="537" y="583" type="line" smooth="yes"/>
      <point x="493" y="583"/>
      <point x="463" y="565"/>
      <point x="453" y="526" type="curve"/>
      <point x="412" y="552"/>
      <point x="356" y="566"/>
      <point x="286" y="566" type="curve" smooth="yes"/>
      <point x="155" y="566"/>
      <point x="85" y="521"/>
      <point x="34" y="449" type="curve"/>
      <point x="128" y="367" type="line"/>
      <point x="158" y="409"/>
      <point x="200" y="449"/>
      <point x="276" y="449" type="curve" smooth="yes"/>
      <point x="356" y="449"/>
      <point x="389" y="412"/>
      <point x="389" y="346" type="curve" smooth="yes"/>
      <point x="389" y="317" type="line"/>
      <point x="224" y="317" type="line" smooth="yes"/>
      <point x="111" y="317"/>
      <point x="49" y="256"/>
      <point x="49" y="153" type="curve" smooth="yes"/>
      <point x="49" y="41"/>
      <point x="118" y="-10"/>
    </contour>
    <contour>
      <point x="537.0" y="0.0" type="move" name="bottomright"/>
    </contour>
    <contour>
      <point x="296.0" y="558.0" type="move" name="top"/>
    </contour>
    <contour>
      <point x="537.0" y="600.0" type="move" name="topright"/>
    </contour>
  </outline>
</glyph>
<glyph name="oAng-thai" format="1">
  <advance width="597"/>
  <unicode hex="0E2D"/>
  <outline>
    <contour>
      <point x="291" y="-12" type="curve" smooth="yes" name="hr00"/>
      <point x="457" y="-12"/>
      <point x="557" y="96"/>
      <point x="557" y="277" type="curve" smooth="yes"/>
      <point x="557" y="458"/>
      <point x="455" y="566"/>
      <point x="286" y="566" type="curve" smooth="yes"/>
      <point x="163" y="566"/>
      <point x="78" y="516"/>
      <point x="37" y="454" type="curve"/>
      <point x="127" y="374" type="line"/>
      <point x="148" y="407"/>
      <point x="205" y="449"/>
      <point x="280" y="449" type="curve" smooth="yes"/>
      <point x="357" y="449"/>
      <point x="402" y="402"/>
      <point x="402" y="322" type="curve" smooth="yes"/>
      <point x="402" y="230" type="line" smooth="yes"/>
      <point x="402" y="150"/>
      <point x="364" y="101"/>
      <point x="296" y="101" type="curve" smooth="yes"/>
      <point x="221" y="101"/>
      <point x="179" y="134"/>
      <point x="179" y="193" type="curve" smooth="yes"/>
      <point x="179" y="209" type="line"/>
      <point x="256" y="209" type="line"/>
      <point x="256" y="318" type="line"/>
      <point x="136" y="318" type="line" smooth="yes"/>
      <point x="77" y="318"/>
      <point x="46" y="283"/>
      <point x="46" y="229" type="curve" smooth="yes"/>
      <point x="46" y="180" type="line" smooth="yes"/>
      <point x="46" y="69"/>
      <point x="149" y="-12"/>
    </contour>
    <contour>
      <point x="533.0" y="0.0" type="move" name="bottomright"/>
    </contour>
    <contour>
      <point x="286.0" y="558.0" type="move" name="top"/>
    </contour>
    <contour>
      <point x="533.0" y="600.0" type="move" name="topright"/>
    </contour>
  </outline>
</glyph>
<glyph name="saraUee-thai" format="1">
  <advance width="0"/>
  <unicode hex="0E37"/>
  <outline>
    <contour>
      <point x="-462" y="639" type="line" name="hr00"/>
      <point x="0" y="639" type="line"/>
      <point x="0" y="835" type="line"/>
      <point x="-114" y="835" type="line"/>
      <point x="-114" y="734" type="line"/>
      <point x="-191" y="734" type="line"/>
      <point x="-191" y="835" type="line"/>
      <point x="-302" y="835" type="line"/>
      <point x="-302" y="747" type="line"/>
      <point x="-462" y="747" type="line"/>
    </contour>
    <contour>
      <point x="0.0" y="600.0" type="move" name="_topright"/>
    </contour>
    <contour>
      <point x="0.0" y="800.0" type="move" name="topright"/>
    </contour>
  </outline>
</glyph>
<glyph name="saraAe-thai" format="1">
  <advance width="605"/>
  <unicode hex="0E41"/>
  <outline>
    <component base="saraE-thai"/>
    <component base="saraE-thai" xOffset="279"/>
    <contour>
      <point x="548.0" y="0.0" type="move" name="bottomright"/>
    </contour>
    <contour>
      <point x="510.0" y="600.0" type="move" name="topright"/>
    </contour>
  </outline>
</glyph>
<glyph name="saraO-thai" format="1">
  <advance width="326"/>
  <unicode hex="0E42"/>
  <outline>
    <contour>
      <point x="230" y="0" type="curve" smooth="yes" name="hr00"/>
      <point x="300" y="0" type="line"/>
      <point x="300" y="115" type="line"/>
      <point x="231" y="115" type="line"/>
      <point x="231" y="606" type="line" smooth="yes"/>
      <point x="231" y="654"/>
      <point x="217" y="673"/>
      <point x="169" y="692" type="curve" smooth="yes"/>
      <point x="73" y="730" type="line"/>
      <point x="78" y="778"/>
      <point x="126" y="801"/>
      <point x="186" y="801" type="curve" smooth="yes"/>
      <point x="242" y="801"/>
      <point x="281" y="776"/>
      <point x="301" y="749" type="curve"/>
      <point x="387" y="830" type="line"/>
      <point x="342" y="884"/>
      <point x="281" y="917"/>
      <point x="182" y="917" type="curve" smooth="yes"/>
      <point x="41" y="917"/>
      <point x="-51" y="835"/>
      <point x="-51" y="704" type="curve" smooth="yes"/>
      <point x="-51" y="672" type="line"/>
      <point x="83" y="617" type="line"/>
      <point x="83" y="144" type="line" smooth="yes"/>
      <point x="83" y="51"/>
      <point x="129" y="0"/>
    </contour>
    <contour>
      <point x="269.0" y="0.0" type="move" name="bottomright"/>
    </contour>
  </outline>
</glyph>
<glyph name="maiEk-thai" format="1">
  <advance width="0"/>
  <unicode hex="0E48"/>
  <outline>
    <contour>
      <point x="-140" y="639" type="line" name="hr00"/>
      <point x="-6" y="639" type="line"/>
      <point x="-6" y="846" type="line"/>
      <point x="-140" y="846" type="line"/>
    </contour>
    <contour>
      <point x="0.0" y="600.0" type="move" name="_topright"/>
    </contour>
    <contour>
      <point x="0.0" y="863.0" type="move" name="topright"/>
    </contour>
  </outline>
</glyph>
<glyph name="maiTho-thai" format="1">
  <advance width="0"/>
  <unicode hex="0E49"/>
  <outline>
    <contour>
      <point x="-211" y="645" type="line" name="hr00"/>
      <point x="103" y="645" type="line"/>
      <point x="103" y="747" type="line"/>
      <point x="-83" y="747" type="line"/>
      <point x="-83" y="755" type="line"/>
      <point x="-47" y="771"/>
      <point x="-25" y="802"/>
      <point x="-25" y="835" type="curve" smooth="yes"/>
      <point x="-25" y="884"/>
      <point x="-63" y="915"/>
      <point x="-128" y="915" type="curve" smooth="yes"/>
      <point x="-211" y="915" type="line"/>
      <point x="-211" y="813" type="line"/>
      <point x="-186" y="813" type="line" smooth="yes"/>
      <point x="-156" y="813"/>
      <point x="-148" y="803"/>
      <point x="-148" y="781" type="curve" smooth="yes"/>
      <point x="-148" y="747" type="line"/>
      <point x="-211" y="747" type="line"/>
    </contour>
    <contour>
      <point x="0.0" y="600.0" type="move" name="_topright"/>
    </contour>
  </outline>
</glyph>
<glyph name="maiChattawa-thai" format="1">
  <advance width="0"/>
  <unicode hex="0E4B"/>
  <outline>
    <contour>
      <point x="-129" y="639" type="line" name="hr00"/>
      <point x="-18" y="639" type="line"/>
      <point x="-18" y="729" type="line"/>
      <point x="72" y="729" type="line"/>
      <point x="72" y="835" type="line"/>
      <point x="-18" y="835" type="line"/>
      <point x="-18" y="925" type="line"/>
      <point x="-129" y="925" type="line"/>
      <point x="-129" y="835" type="line"/>
      <point x="-219" y="835" type="line"/>
      <point x="-219" y="729" type="line"/>
      <point x="-129" y="729" type="line"/>
    </contour>
    <contour>
      <point x="0.0" y="600.0" type="move" name="_topright"/>
    </contour>
  </outline>
</glyph>
<glyph name="thanthakhat-thai" format="1">
  <advance width="0"/>
  <unicode hex="0E4C"/>
  <outline>
    <contour>
      <point x="-265" y="639" type="line" name="hr00"/>
      <point x="-148" y="639" type="line"/>
      <point x="-148" y="727" type="line"/>
      <point x="70" y="727" type="line"/>
      <point x="70" y="835" type="line"/>
      <point x="-138" y="835" type="line" smooth="yes"/>
      <point x="-220" y="835"/>
      <point x="-265" y="795"/>
      <point x="-265" y="721" type="curve" smooth="yes"/>
    </contour>
    <contour>
      <point x="0.0" y="600.0" type="move" name="_topright"/>
    </contour>
  </outline>
</glyph>
<glyph name="nikhahit-thai" format="1">
  <advance width="0"/>
  <unicode hex="0E4D"/>
  <outline>
    <contour>
      <point x="-74" y="691" type="curve" smooth="yes" name="hr00"/>
      <point x="-100" y="691"/>
      <point x="-116" y="704"/>
      <point x="-116" y="732" type="curve" smooth="yes"/>
      <point x="-116" y="742" type="line" smooth="yes"/>
      <point x="-116" y="770"/>
      <point x="-100" y="783"/>
      <point x="-74" y="783" type="curve" smooth="yes"/>
      <point x="-48" y="783"/>
      <point x="-32" y="770"/>
      <point x="-32" y="742" type="curve" smooth="yes"/>
      <point x="-32" y="732" type="line" smooth="yes"/>
      <point x="-32" y="704"/>
      <point x="-48" y="691"/>
    </contour>
    <contour>
      <point x="-74" y="608" type="curve" smooth="yes"/>
      <point x="10" y="608"/>
      <point x="64" y="665"/>
      <point x="64" y="737" type="curve" smooth="yes"/>
      <point x="64" y="809"/>
      <point x="10" y="866"/>
      <point x="-74" y="866" type="curve" smooth="yes"/>
      <point x="-158" y="866"/>
      <point x="-212" y="809"/>
      <point x="-212" y="737" type="curve" smooth="yes"/>
      <point x="-212" y="665"/>
      <point x="-158" y="608"/>
    </contour>
    <contour>
      <point x="0.0" y="600.0" type="move" name="_topright"/>
    </contour>
    <contour>
      <point x="-12.0" y="840.0" type="move" name="topright"/>
    </contour>
  </outline>
</glyph>
<glyph name="yamakkan-thai" format="1">
  <advance width="0"/>
  <unicode hex="0E4E"/>
  <outline>
    <contour>
      <point x="-57" y="645" type="curve" smooth="yes" name="hr00"/>
      <point x="0" y="645" type="line"/>
      <point x="0" y="724" type="line"/>
      <point x="-25" y="724" type="line" smooth="yes"/>
      <point x="-63" y="724"/>
      <point x="-79" y="736"/>
      <point x="-79" y="754" type="curve" smooth="yes"/>
      <point x="-79" y="774"/>
      <point x="-61" y="783"/>
      <point x="-26" y="783" type="curve" smooth="yes"/>
      <point x="13" y="783" type="line"/>
      <point x="13" y="838" type="line"/>
      <point x="-9" y="838" type="line" smooth="yes"/>
      <point x="-35" y="838"/>
      <point x="-52" y="849"/>
      <point x="-52" y="868" type="curve" smooth="yes"/>
      <point x="-52" y="886"/>
      <point x="-35" y="897"/>
      <point x="-5" y="897" type="curve" smooth="yes"/>
      <point x="13" y="897"/>
      <point x="28" y="891"/>
      <point x="39" y="886" type="curve"/>
      <point x="65" y="958" type="line"/>
      <point x="46" y="967"/>
      <point x="12" y="975"/>
      <point x="-24" y="975" type="curve" smooth="yes"/>
      <point x="-105" y="975"/>
      <point x="-147" y="934"/>
      <point x="-147" y="893" type="curve" smooth="yes"/>
      <point x="-147" y="853"/>
      <point x="-116" y="826"/>
      <point x="-54" y="817" type="curve"/>
      <point x="-54" y="813" type="line"/>
      <point x="-147" y="813"/>
      <point x="-181" y="768"/>
      <point x="-181" y="725" type="curve" smooth="yes"/>
      <point x="-181" y="677"/>
      <point x="-142" y="645"/>
    </contour>
    <contour>
      <point x="0.0" y="600.0" type="move" name="_topright"/>
    </contour>
  </outline>
</glyph>
<glyph name="fongman-thai" format="1">
  <advance width="666"/>
  <unicode hex="0E4F"/>
  <outline>
    <contour>
      <point x="334" y="189" type="curve" smooth="yes" name="hr00"/>
      <point x="395" y="189"/>
      <point x="421" y="221"/>
      <point x="421" y="265" type="curve" smooth="yes"/>
      <point x="421" y="289" type="line" smooth="yes"/>
      <point x="421" y="333"/>
      <point x="395" y="365"/>
      <point x="333" y="365" type="curve" smooth="yes"/>
      <point x="272" y="365"/>
      <point x="245" y="333"/>
      <point x="245" y="289" type="curve" smooth="yes"/>
      <point x="245" y="265" type="line" smooth="yes"/>
      <point x="245" y="221"/>
      <point x="272" y="189"/>
    </contour>
    <contour>
      <point x="333" y="104" type="curve" smooth="yes"/>
      <point x="242" y="104"/>
      <point x="186" y="158"/>
      <point x="186" y="249" type="curve" smooth="yes"/>
      <point x="186" y="305" type="line" smooth="yes"/>
      <point x="186" y="396"/>
      <point x="242" y="450"/>
      <point x="333" y="450" type="curve" smooth="yes"/>
      <point x="424" y="450"/>
      <point x="480" y="396"/>
      <point x="480" y="305" type="curve" smooth="yes"/>
      <point x="480" y="249" type="line" smooth="yes"/>
      <point x="480" y="158"/>
      <point x="424" y="104"/>
    </contour>
    <contour>
      <point x="333" y="-12" type="curve" smooth="yes"/>
      <point x="508" y="-12"/>
      <point x="617" y="98"/>
      <point x="617" y="277" type="curve" smooth="yes"/>
      <point x="617" y="456"/>
      <point x="508" y="566"/>
      <point x="333" y="566" type="curve" smooth="yes"/>
      <point x="158" y="566"/>
      <point x="49" y="456"/>
      <point x="49" y="277" type="curve" smooth="yes"/>
      <point x="49" y="98"/>
      <point x="158" y="-12"/>
    </contour>
  </outline>
</glyph>
<glyph name="zero-thai" format="1">
  <advance width="590"/>
  <unicode hex="0E50"/>
  <outline>
    <contour>
      <point x="295" y="105" type="curve" smooth="yes" name="hr00"/>
      <point x="235" y="105"/>
      <point x="197" y="139"/>
      <point x="197" y="199" type="curve" smooth="yes"/>
      <point x="197" y="307" type="line" smooth="yes"/>
      <point x="197" y="367"/>
      <point x="235" y="401"/>
      <point x="295" y="401" type="curve" smooth="yes"/>
      <point x="355" y="401"/>
      <point x="393" y="367"/>
      <point x="393" y="307" type="curve" smooth="yes"/>
      <point x="393" y="199" type="line" smooth="yes"/>
      <point x="393" y="139"/>
      <point x="355" y="105"/>
    </contour>
    <contour>
      <point x="295" y="-12" type="curve" smooth="yes"/>
      <point x="451" y="-12"/>
      <point x="547" y="89"/>
      <point x="547" y="253" type="curve" smooth="yes"/>
      <point x="547" y="417"/>
      <point x="451" y="518"/>
      <point x="295" y="518" type="curve" smooth="yes"/>
      <point x="139" y="518"/>
      <point x="43" y="417"/>
      <point x="43" y="253" type="curve" smooth="yes"/>
      <point x="43" y="89"/>
      <point x="139" y="-12"/>
    </contour>
  </outline>
</glyph>
<glyph name="four-thai" format="1">
  <advance width="554"/>
  <unicode hex="0E54"/>
  <outline>
    <contour>
      <point x="315" y="0" type="curve" name="hr00"/>
      <point x="525" y="0" type="line"/>
      <point x="525" y="118" type="line"/>
      <point x="470" y="118"/>
      <point x="445" y="169"/>
      <point x="445" y="208" type="curve" smooth="yes"/>
      <point x="445" y="229" type="line"/>
      <point x="509" y="229" type="line"/>
      <point x="509" y="344" type="line"/>
      <point x="442" y="344" type="line" smooth="yes"/>
      <point x="342" y="344"/>
      <point x="295" y="306"/>
      <point x="295" y="247" type="curve" smooth="yes"/>
      <point x="295" y="239" type="line" smooth="yes"/>
      <point x="295" y="165"/>
      <point x="357" y="133"/>
      <point x="420" y="123" type="curve"/>
      <point x="420" y="118" type="line"/>
      <point x="315" y="118" type="line" smooth="yes"/>
      <point x="217" y="118"/>
      <point x="198" y="162"/>
      <point x="198" y="214" type="curve" smooth="yes"/>
      <point x="198" y="266" type="line" smooth="yes"/>
      <point x="198" y="335"/>
      <point x="228" y="363"/>
      <point x="292" y="381" type="curve" smooth="yes"/>
      <point x="411" y="415" type="line" smooth="yes"/>
      <point x="497" y="440"/>
      <point x="506" y="472"/>
      <point x="511" y="513" type="curve" smooth="yes"/>
      <point x="522" y="606" type="line"/>
      <point x="391" y="606" type="line"/>
      <point x="381" y="543" type="line" smooth="yes"/>
      <point x="377" y="515"/>
      <point x="358" y="511"/>
      <point x="330" y="502" type="curve" smooth="yes"/>
      <point x="227" y="471" type="line" smooth="yes"/>
      <point x="146" y="447"/>
      <point x="43" y="405"/>
      <point x="43" y="245" type="curve" smooth="yes"/>
      <point x="43" y="86"/>
      <point x="135" y="0"/>
    </contour>
  </outline>
</glyph>
<glyph name="fraction" format="1">
  <advance width="147"/>
  <unicode hex="2044"/>
  <outline>
    <contour>
      <point x="-137" y="0" type="line" name="hr00"/>
      <point x="392" y="698" type="line"/>
      <point x="284" y="698" type="line"/>
      <point x="-245" y="0" type="line"/>
    </contour>
  </outline>
</glyph>
<glyph name="sheqel" format="1">
  <advance width="916"/>
  <unicode hex="20AA"/>
  <outline>
    <contour>
      <point x="286" y="0" type="line" name="hr00"/>
      <point x="657" y="0" type="line" smooth="yes"/>
      <point x="765" y="0"/>
      <point x="839" y="65"/>
      <point x="839" y="198" type="curve" smooth="yes"/>
      <point x="839" y="698" type="line"/>
      <point x="704" y="698" type="line"/>
      <point x="704" y="199" type="line" smooth="yes"/>
      <point x="704" y="155"/>
      <point x="683" y="123"/>
      <point x="637" y="123" type="curve" smooth="yes"/>
      <point x="421" y="123" type="line"/>
      <point x="421" y="505" type="line"/>
      <point x="286" y="505" type="line"/>
    </contour>
    <contour>
      <point x="212" y="0" type="line"/>
      <point x="212" y="575" type="line"/>
      <point x="428" y="575" type="line" smooth="yes"/>
      <point x="477" y="575"/>
      <point x="495" y="543"/>
      <point x="495" y="499" type="curve" smooth="yes"/>
      <point x="495" y="191" type="line"/>
      <point x="630" y="191" type="line"/>
      <point x="630" y="500" type="line" smooth="yes"/>
      <point x="630" y="633"/>
      <point x="556" y="698"/>
      <point x="448" y="698" type="curve" smooth="yes"/>
      <point x="77" y="698" type="line"/>
      <point x="77" y="0" type="line"/>
    </contour>
  </outline>
</glyph>
<glyph name="u2638" format="1">
  <advance width="992"/>
  <unicode hex="2638"/>
  <outline>
    <contour>
      <point x="439" y="-89" type="line" name="hr00"/>
      <point x="553" y="-89" type="line"/>
      <point x="551" y="-23" type="line"/>
      <point x="620" y="-16"/>
      <point x="678" y="4"/>
      <point x="726" y="35" type="curve"/>
      <point x="774" y="-17" type="line"/>
      <point x="849" y="58" type="line"/>
      <point x="802" y="102" type="line"/>
      <point x="844" y="153"/>
      <point x="869" y="216"/>
      <point x="877" y="285" type="curve"/>
      <point x="942" y="283" type="line"/>
      <point x="942" y="389" type="line"/>
      <point x="877" y="387" type="line"/>
      <point x="869" y="456"/>
      <point x="844" y="519"/>
      <point x="802" y="570" type="curve"/>
      <point x="849" y="614" type="line"/>
      <point x="774" y="689" type="line"/>
      <point x="726" y="637" type="line"/>
      <point x="678" y="668"/>
      <point x="620" y="688"/>
      <point x="551" y="695" type="curve"/>
      <point x="553" y="761" type="line"/>
      <point x="439" y="761" type="line"/>
      <point x="441" y="695" type="line"/>
      <point x="372" y="688"/>
      <point x="314" y="668"/>
      <point x="266" y="637" type="curve"/>
      <point x="218" y="689" type="line"/>
      <point x="143" y="614" type="line"/>
      <point x="190" y="570" type="line"/>
      <point x="148" y="519"/>
      <point x="123" y="456"/>
      <point x="115" y="387" type="curve"/>
      <point x="50" y="389" type="line"/>
      <point x="50" y="283" type="line"/>
      <point x="115" y="285" type="line"/>
      <point x="123" y="216"/>
      <point x="148" y="153"/>
      <point x="190" y="102" type="curve"/>
      <point x="143" y="58" type="line"/>
      <point x="218" y="-17" type="line"/>
      <point x="266" y="35" type="line"/>
      <point x="314" y="4"/>
      <point x="372" y="-16"/>
      <point x="441" y="-23" type="curve"/>
    </contour>
    <contour>
      <point x="275" y="182" type="line"/>
      <point x="253" y="213"/>
      <point x="239" y="250"/>
      <point x="233" y="289" type="curve"/>
      <point x="370" y="292" type="line"/>
      <point x="376" y="276" type="line"/>
    </contour>
    <contour>
      <point x="370" y="380" type="line"/>
      <point x="233" y="383" type="line"/>
      <point x="239" y="422"/>
      <point x="253" y="459"/>
      <point x="275" y="490" type="curve"/>
      <point x="376" y="396" type="line"/>
    </contour>
    <contour>
      <point x="445" y="86" type="line"/>
      <point x="406" y="92"/>
      <point x="373" y="103"/>
      <point x="346" y="119" type="curve"/>
      <point x="435" y="217" type="line"/>
      <point x="451" y="211" type="line"/>
    </contour>
    <contour>
      <point x="435" y="455" type="line"/>
      <point x="346" y="553" type="line"/>
      <point x="373" y="569"/>
      <point x="406" y="580"/>
      <point x="445" y="586" type="curve"/>
      <point x="451" y="461" type="line"/>
    </contour>
    <contour>
      <point x="496" y="290" type="curve" smooth="yes"/>
      <point x="465" y="290"/>
      <point x="451" y="312"/>
      <point x="451" y="336" type="curve" smooth="yes"/>
      <point x="451" y="360"/>
      <point x="465" y="382"/>
      <point x="496" y="382" type="curve" smooth="yes"/>
      <point x="527" y="382"/>
      <point x="541" y="360"/>
      <point x="541" y="336" type="curve" smooth="yes"/>
      <point x="541" y="312"/>
      <point x="527" y="290"/>
    </contour>
    <contour>
      <point x="547" y="86" type="curve"/>
      <point x="541" y="211" type="line"/>
      <point x="557" y="217" type="line"/>
      <point x="646" y="119" type="line"/>
      <point x="619" y="103"/>
      <point x="586" y="92"/>
    </contour>
    <contour>
      <point x="557" y="455" type="line"/>
      <point x="541" y="461" type="line"/>
      <point x="547" y="586" type="line"/>
      <point x="586" y="580"/>
      <point x="619" y="569"/>
      <point x="646" y="553" type="curve"/>
    </contour>
    <contour>
      <point x="717" y="182" type="curve"/>
      <point x="616" y="276" type="line"/>
      <point x="622" y="292" type="line"/>
      <point x="759" y="289" type="line"/>
      <point x="753" y="250"/>
      <point x="739" y="213"/>
    </contour>
    <contour>
      <point x="622" y="380" type="line"/>
      <point x="616" y="396" type="line"/>
      <point x="717" y="490" type="line"/>
      <point x="739" y="459"/>
      <point x="753" y="422"/>
      <point x="759" y="383" type="curve"/>
    </contour>
  </outline>
</glyph>
<glyph name="ibmlogo07" format="1">
  <advance width="604"/>
  <unicode hex="EBE7"/>
  <outline>
    <contour>
      <point x="302" y="461" type="curve" smooth="yes" name="hr00"/>
      <point x="374" y="461"/>
      <point x="435" y="506"/>
      <point x="461" y="571" type="curve"/>
      <point x="435" y="635"/>
      <point x="374" y="680"/>
      <point x="302" y="680" type="curve" smooth="yes"/>
      <point x="230" y="680"/>
      <point x="169" y="635"/>
      <point x="143" y="571" type="curve"/>
      <point x="169" y="506"/>
      <point x="230" y="461"/>
    </contour>
    <contour>
      <point x="302" y="730" type="curve" smooth="yes"/>
      <point x="362" y="730"/>
      <point x="416" y="703"/>
      <point x="452" y="660" type="curve"/>
      <point x="452" y="690" type="line"/>
      <point x="422" y="744"/>
      <point x="366" y="780"/>
      <point x="302" y="780" type="curve" smooth="yes"/>
      <point x="238" y="780"/>
      <point x="182" y="744"/>
      <point x="152" y="690" type="curve"/>
      <point x="152" y="660" type="line"/>
      <point x="188" y="703"/>
      <point x="242" y="730"/>
    </contour>
    <contour>
      <point x="339" y="361" type="curve" smooth="yes"/>
      <point x="356" y="361"/>
      <point x="369" y="374"/>
      <point x="369" y="391" type="curve" smooth="yes"/>
      <point x="369" y="407"/>
      <point x="356" y="421"/>
      <point x="339" y="421" type="curve" smooth="yes"/>
      <point x="323" y="421"/>
      <point x="310" y="407"/>
      <point x="310" y="391" type="curve" smooth="yes"/>
      <point x="310" y="374"/>
      <point x="323" y="361"/>
    </contour>
    <contour>
      <point x="452" y="174" type="curve" smooth="yes"/>
      <point x="481" y="174"/>
      <point x="504" y="198"/>
      <point x="504" y="226" type="curve" smooth="yes"/>
      <point x="504" y="251"/>
      <point x="489" y="267"/>
      <point x="468" y="276" type="curve" smooth="yes"/>
      <point x="367" y="321" type="line"/>
      <point x="401" y="212" type="line" smooth="yes"/>
      <point x="407" y="193"/>
      <point x="424" y="174"/>
    </contour>
    <contour>
      <point x="302" y="348" type="curve" smooth="yes"/>
      <point x="276" y="348"/>
      <point x="254" y="333"/>
      <point x="243" y="311" type="curve"/>
      <point x="361" y="311" type="line"/>
      <point x="350" y="333"/>
      <point x="328" y="348"/>
    </contour>
    <contour>
      <point x="329" y="20" type="line"/>
      <point x="468" y="20" type="line"/>
      <point x="468" y="41" type="line"/>
      <point x="336" y="41" type="line"/>
    </contour>
    <contour>
      <point x="343" y="60" type="line"/>
      <point x="468" y="60" type="line"/>
      <point x="468" y="81" type="line"/>
      <point x="350" y="81" type="line"/>
    </contour>
    <contour>
      <point x="315" y="-20" type="line"/>
      <point x="426" y="-20" type="line"/>
      <point x="426" y="1" type="line"/>
      <point x="322" y="1" type="line"/>
    </contour>
    <contour>
      <point x="178" y="-60" type="line"/>
      <point x="239" y="-60" type="line"/>
      <point x="239" y="-41" type="line"/>
      <point x="246" y="-60" type="line"/>
      <point x="358" y="-60" type="line"/>
      <point x="365" y="-41" type="line"/>
      <point x="365" y="-60" type="line"/>
      <point x="426" y="-60" type="line"/>
      <point x="426" y="-39" type="line"/>
      <point x="308" y="-39" type="line"/>
      <point x="302" y="-56" type="line"/>
      <point x="296" y="-39" type="line"/>
      <point x="178" y="-39" type="line"/>
    </contour>
    <contour>
      <point x="365" y="-100" type="line"/>
      <point x="426" y="-100" type="line"/>
      <point x="426" y="-79" type="line"/>
      <point x="365" y="-79" type="line"/>
    </contour>
    <contour>
      <point x="365" y="-140" type="line"/>
      <point x="426" y="-140" type="line"/>
      <point x="426" y="-119" type="line"/>
      <point x="365" y="-119" type="line"/>
    </contour>
    <contour>
      <point x="365" y="-180" type="line"/>
      <point x="468" y="-180" type="line"/>
      <point x="468" y="-159" type="line"/>
      <point x="365" y="-159" type="line"/>
    </contour>
    <contour>
      <point x="365" y="-220" type="line"/>
      <point x="468" y="-220" type="line"/>
      <point x="468" y="-199" type="line"/>
      <point x="365" y="-199" type="line"/>
    </contour>
    <contour>
      <point x="302" y="531" type="curve" smooth="yes"/>
      <point x="324" y="531"/>
      <point x="342" y="549"/>
      <point x="342" y="571" type="curve" smooth="yes"/>
      <point x="342" y="593"/>
      <point x="324" y="610"/>
      <point x="302" y="610" type="curve" smooth="yes"/>
      <point x="280" y="610"/>
      <point x="262" y="593"/>
      <point x="262" y="571" type="curve" smooth="yes"/>
      <point x="262" y="549"/>
      <point x="280" y="531"/>
    </contour>
    <contour>
      <point x="302" y="481" type="curve" smooth="yes"/>
      <point x="252" y="481"/>
      <point x="212" y="521"/>
      <point x="212" y="571" type="curve" smooth="yes"/>
      <point x="212" y="620"/>
      <point x="252" y="660"/>
      <point x="302" y="660" type="curve" smooth="yes"/>
      <point x="352" y="660"/>
      <point x="392" y="620"/>
      <point x="392" y="571" type="curve" smooth="yes"/>
      <point x="392" y="521"/>
      <point x="352" y="481"/>
    </contour>
    <contour>
      <point x="265" y="361" type="curve" smooth="yes"/>
      <point x="281" y="361"/>
      <point x="294" y="374"/>
      <point x="294" y="391" type="curve" smooth="yes"/>
      <point x="294" y="407"/>
      <point x="281" y="421"/>
      <point x="265" y="421" type="curve" smooth="yes"/>
      <point x="248" y="421"/>
      <point x="235" y="407"/>
      <point x="235" y="391" type="curve" smooth="yes"/>
      <point x="235" y="374"/>
      <point x="248" y="361"/>
    </contour>
    <contour>
      <point x="152" y="174" type="curve" smooth="yes"/>
      <point x="180" y="174"/>
      <point x="197" y="193"/>
      <point x="203" y="212" type="curve" smooth="yes"/>
      <point x="237" y="321" type="line"/>
      <point x="136" y="276" type="line" smooth="yes"/>
      <point x="115" y="267"/>
      <point x="100" y="251"/>
      <point x="100" y="226" type="curve" smooth="yes"/>
      <point x="100" y="198"/>
      <point x="123" y="174"/>
    </contour>
    <contour>
      <point x="237" y="246" type="line"/>
      <point x="367" y="246" type="line"/>
      <point x="367" y="281" type="line"/>
      <point x="237" y="281" type="line"/>
    </contour>
    <contour>
      <point x="237" y="182" type="line"/>
      <point x="367" y="182" type="line"/>
      <point x="367" y="216" type="line"/>
      <point x="237" y="216" type="line"/>
    </contour>
    <contour>
      <point x="302" y="114" type="curve" smooth="yes"/>
      <point x="328" y="114"/>
      <point x="350" y="130"/>
      <point x="361" y="152" type="curve"/>
      <point x="243" y="152" type="line"/>
      <point x="254" y="130"/>
      <point x="276" y="114"/>
    </contour>
    <contour>
      <point x="302" y="-220" type="line"/>
      <point x="310" y="-199" type="line"/>
      <point x="294" y="-199" type="line"/>
    </contour>
    <contour>
      <point x="288" y="-180" type="line"/>
      <point x="316" y="-180" type="line"/>
      <point x="324" y="-159" type="line"/>
      <point x="280" y="-159" type="line"/>
    </contour>
    <contour>
      <point x="274" y="-140" type="line"/>
      <point x="330" y="-140" type="line"/>
      <point x="338" y="-119" type="line"/>
      <point x="266" y="-119" type="line"/>
    </contour>
    <contour>
      <point x="260" y="-100" type="line"/>
      <point x="344" y="-100" type="line"/>
      <point x="352" y="-79" type="line"/>
      <point x="252" y="-79" type="line"/>
    </contour>
    <contour>
      <point x="136" y="20" type="line"/>
      <point x="275" y="20" type="line"/>
      <point x="268" y="41" type="line"/>
      <point x="136" y="41" type="line"/>
    </contour>
    <contour>
      <point x="136" y="60" type="line"/>
      <point x="261" y="60" type="line"/>
      <point x="254" y="81" type="line"/>
      <point x="136" y="81" type="line"/>
    </contour>
    <contour>
      <point x="178" y="-20" type="line"/>
      <point x="289" y="-20" type="line"/>
      <point x="282" y="1" type="line"/>
      <point x="178" y="1" type="line"/>
    </contour>
    <contour>
      <point x="178" y="-100" type="line"/>
      <point x="239" y="-100" type="line"/>
      <point x="239" y="-79" type="line"/>
      <point x="178" y="-79" type="line"/>
    </contour>
    <contour>
      <point x="178" y="-140" type="line"/>
      <point x="239" y="-140" type="line"/>
      <point x="239" y="-119" type="line"/>
      <point x="178" y="-119" type="line"/>
    </contour>
    <contour>
      <point x="136" y="-180" type="line"/>
      <point x="239" y="-180" type="line"/>
      <point x="239" y="-159" type="line"/>
      <point x="136" y="-159" type="line"/>
    </contour>
    <contour>
      <point x="136" y="-220" type="line"/>
      <point x="239" y="-220" type="line"/>
      <point x="239" y="-199" type="line"/>
      <point x="136" y="-199" type="line"/>
    </contour>
  </outline>
</glyph>
<glyph name="tripleWisanchani-thai" format="1">
  <advance width="707"/>
  <unicode hex="EC04"/>
  <outline>
    <contour>
      <point x="190" y="79" type="curve" smooth="yes" name="hr00"/>
      <point x="334" y="79" type="line"/>
      <point x="334" y="200" type="line"/>
      <point x="186" y="200" type="line"/>
      <point x="186" y="255" type="line"/>
      <point x="63" y="255" type="line"/>
      <point x="63" y="193" type="line" smooth="yes"/>
      <point x="63" y="119"/>
      <point x="108" y="79"/>
    </contour>
    <contour>
      <point x="190" y="324" type="curve" smooth="yes"/>
      <point x="334" y="324" type="line"/>
      <point x="334" y="445" type="line"/>
      <point x="186" y="445" type="line"/>
      <point x="186" y="500" type="line"/>
      <point x="63" y="500" type="line"/>
      <point x="63" y="438" type="line" smooth="yes"/>
      <point x="63" y="364"/>
      <point x="108" y="324"/>
    </contour>
    <contour>
      <point x="500" y="169" type="curve" smooth="yes"/>
      <point x="644" y="169" type="line"/>
      <point x="644" y="290" type="line"/>
      <point x="496" y="290" type="line"/>
      <point x="496" y="345" type="line"/>
      <point x="373" y="345" type="line"/>
      <point x="373" y="283" type="line" smooth="yes"/>
      <point x="373" y="209"/>
      <point x="418" y="169"/>
    </contour>
  </outline>
</glyph>
<glyph name="tinKhru-thai" format="1">
  <advance width="1660"/>
  <unicode hex="EC06"/>
  <outline>
    <contour>
      <point x="756" y="-533" type="line" name="hr00"/>
      <point x="904" y="-533" type="line"/>
      <point x="904" y="199" type="line"/>
      <point x="1630" y="199" type="line"/>
      <point x="1630" y="335" type="line"/>
      <point x="904" y="335" type="line"/>
      <point x="904" y="1067" type="line"/>
      <point x="756" y="1067" type="line"/>
      <point x="756" y="335" type="line"/>
      <point x="30" y="335" type="line"/>
      <point x="30" y="199" type="line"/>
      <point x="756" y="199" type="line"/>
    </contour>
  </outline>
</glyph>
<glyph name="fannu-thai" format="1">
  <advance width="0"/>
  <unicode hex="EC08"/>
  <outline>
    <contour>
      <point x="-364" y="639" type="line" name="hr00"/>
      <point x="-230" y="639" type="line"/>
      <point x="-230" y="846" type="line"/>
      <point x="-364" y="846" type="line"/>
    </contour>
    <contour>
      <point x="-164" y="639" type="line"/>
      <point x="-30" y="639" type="line"/>
      <point x="-30" y="846" type="line"/>
      <point x="-164" y="846" type="line"/>
    </contour>
    <contour>
      <point x="-197.0" y="558.0" type="move" name="_top"/>
    </contour>
  </outline>
</glyph>
<glyph name="unalome-thai" format="1">
  <advance width="766"/>
  <unicode hex="EC0B"/>
  <outline>
    <contour>
      <point x="393" y="-11" type="curve" smooth="yes" name="hr00"/>
      <point x="618" y="-11"/>
      <point x="713" y="99"/>
      <point x="713" y="238" type="curve" smooth="yes"/>
      <point x="713" y="327"/>
      <point x="672" y="391"/>
      <point x="602" y="428" type="curve"/>
      <point x="516" y="324" type="line"/>
      <point x="546" y="313"/>
      <point x="570" y="289"/>
      <point x="570" y="251" type="curve" smooth="yes"/>
      <point x="570" y="225" type="line" smooth="yes"/>
      <point x="570" y="151"/>
      <point x="525" y="106"/>
      <point x="393" y="106" type="curve" smooth="yes"/>
      <point x="272" y="106"/>
      <point x="207" y="136"/>
      <point x="207" y="225" type="curve" smooth="yes"/>
      <point x="207" y="304" type="line" smooth="yes"/>
      <point x="207" y="387"/>
      <point x="301" y="458"/>
      <point x="610" y="462" type="curve"/>
      <point x="610" y="595" type="line"/>
      <point x="317" y="668" type="line"/>
      <point x="317" y="670" type="line"/>
      <point x="564" y="732" type="line"/>
      <point x="564" y="840" type="line"/>
      <point x="379" y="886" type="line"/>
      <point x="379" y="888" type="line"/>
      <point x="459" y="896"/>
      <point x="513" y="923"/>
      <point x="513" y="1030" type="curve" smooth="yes"/>
      <point x="513" y="1067" type="line"/>
      <point x="389" y="1067" type="line"/>
      <point x="389" y="1039" type="line" smooth="yes"/>
      <point x="389" y="958"/>
      <point x="358" y="943"/>
      <point x="224" y="919" type="curve"/>
      <point x="224" y="832" type="line"/>
      <point x="411" y="785" type="line"/>
      <point x="411" y="783" type="line"/>
      <point x="164" y="721" type="line"/>
      <point x="164" y="613" type="line"/>
      <point x="425" y="548" type="line"/>
      <point x="425" y="545" type="line"/>
      <point x="137" y="511"/>
      <point x="53" y="402"/>
      <point x="53" y="261" type="curve" smooth="yes"/>
      <point x="53" y="74"/>
      <point x="174" y="-11"/>
    </contour>
  </outline>
</glyph>
<glyph name="doChada-thai.short" format="1">
  <advance width="647"/>
  <outline>
    <contour>
      <point x="219" y="-180" type="line" name="hr00"/>
      <point x="237" y="-137"/>
      <point x="283" y="-100"/>
      <point x="341" y="-100" type="curve" smooth="yes"/>
      <point x="399" y="-100"/>
      <point x="435" y="-137"/>
      <point x="453" y="-180" type="curve"/>
      <point x="584" y="-180" type="line"/>
      <point x="584" y="332" type="line" smooth="yes"/>
      <point x="584" y="472"/>
      <point x="485" y="566"/>
      <point x="321" y="566" type="curve" smooth="yes"/>
      <point x="164" y="566"/>
      <point x="55" y="473"/>
      <point x="43" y="326" type="curve"/>
      <point x="130" y="291" type="line"/>
      <point x="130" y="115" type="line"/>
      <point x="81" y="115" type="line"/>
      <point x="81" y="0" type="line"/>
      <point x="131" y="0" type="line" smooth="yes"/>
      <point x="232" y="0"/>
      <point x="278" y="51"/>
      <point x="278" y="144" type="curve" smooth="yes"/>
      <point x="278" y="280" type="line" smooth="yes"/>
      <point x="278" y="328"/>
      <point x="264" y="347"/>
      <point x="216" y="366" type="curve" smooth="yes"/>
      <point x="181" y="380" type="line"/>
      <point x="201" y="419"/>
      <point x="248" y="449"/>
      <point x="311" y="449" type="curve" smooth="yes"/>
      <point x="395" y="449"/>
      <point x="436" y="399"/>
      <point x="436" y="313" type="curve" smooth="yes"/>
      <point x="436" y="-86" type="line"/>
      <point x="430" y="-86" type="line"/>
      <point x="410" y="-30"/>
      <point x="367" y="5"/>
      <point x="291" y="5" type="curve" smooth="yes"/>
      <point x="211" y="5"/>
      <point x="153" y="-36"/>
      <point x="114" y="-95" type="curve"/>
    </contour>
    <contour>
      <point x="584.0" y="-132.0" type="move" name="bottomright"/>
    </contour>
    <contour>
      <point x="315.0" y="558.0" type="move" name="top"/>
    </contour>
    <contour>
      <point x="584.0" y="600.0" type="move" name="topright"/>
    </contour>
  </outline>
</glyph>
<glyph name="maiChattawa-thai.narrow" format="1">
  <advance width="0"/>
  <outline>
    <contour>
      <point x="-266" y="639" type="line" name="hr00"/>
      <point x="-155" y="639" type="line"/>
      <point x="-155" y="729" type="line"/>
      <point x="-65" y="729" type="line"/>
      <point x="-65" y="835" type="line"/>
      <point x="-155" y="835" type="line"/>
      <point x="-155" y="925" type="line"/>
      <point x="-266" y="925" type="line"/>
      <point x="-266" y="835" type="line"/>
      <point x="-356" y="835" type="line"/>
      <point x="-356" y="729" type="line"/>
      <point x="-266" y="729" type="line"/>
    </contour>
    <contour>
      <point x="0.0" y="600.0" type="move" name="_topright"/>
    </contour>
  </outline>
</glyph>
<glyph name="maiChattawa-thai.small" format="1">
  <advance width="0"/>
  <outline>
    <contour>
      <point x="-100" y="866" type="line" name="hr00"/>
      <point x="0" y="866" type="line"/>
      <point x="0" y="932" type="line"/>
      <point x="66" y="932" type="line"/>
      <point x="66" y="1016" type="line"/>
      <point x="0" y="1016" type="line"/>
      <point x="0" y="1082" type="line"/>
      <point x="-100" y="1082" type="line"/>
      <point x="-100" y="1016" type="line"/>
      <point x="-166" y="1016" type="line"/>
      <point x="-166" y="932" type="line"/>
      <point x="-100" y="932" type="line"/>
    </contour>
    <contour>
      <point x="0.0" y="800.0" type="move" name="_topright"/>
    </contour>
  </outline>
</glyph>
<glyph name="maiTri-thai.narrow" format="1">
  <advance width="0"/>
  <outline>
    <contour>
      <point x="-448" y="645" type="line" name="hr00"/>
      <point x="-354" y="645" type="line"/>
      <point x="-354" y="730" type="line" smooth="yes"/>
      <point x="-354" y="749"/>
      <point x="-347" y="763"/>
      <point x="-331" y="763" type="curve" smooth="yes"/>
      <point x="-318" y="763"/>
      <point x="-309" y="752"/>
      <point x="-309" y="726" type="curve" smooth="yes"/>
      <point x="-309" y="692" type="line"/>
      <point x="-247" y="692" type="line"/>
      <point x="-247" y="726" type="line" smooth="yes"/>
      <point x="-247" y="753"/>
      <point x="-238" y="763"/>
      <point x="-225" y="763" type="curve" smooth="yes"/>
      <point x="-209" y="763"/>
      <point x="-202" y="750"/>
      <point x="-202" y="730" type="curve" smooth="yes"/>
      <point x="-202" y="645" type="line"/>
      <point x="-55" y="645" type="line"/>
      <point x="-55" y="747" type="line"/>
      <point x="-108" y="747" type="line"/>
      <point x="-108" y="769" type="line" smooth="yes"/>
      <point x="-108" y="821"/>
      <point x="-138" y="859"/>
      <point x="-192" y="859" type="curve" smooth="yes"/>
      <point x="-235" y="859"/>
      <point x="-267" y="839"/>
      <point x="-276" y="792" type="curve"/>
      <point x="-282" y="792" type="line"/>
      <point x="-292" y="839"/>
      <point x="-325" y="859"/>
      <point x="-364" y="859" type="curve" smooth="yes"/>
      <point x="-418" y="859"/>
      <point x="-448" y="821"/>
      <point x="-448" y="769" type="curve" smooth="yes"/>
    </contour>
    <contour>
      <point x="0.0" y="600.0" type="move" name="_topright"/>
    </contour>
    <contour>
      <point x="-108.0" y="800.0" type="move" name="topright"/>
    </contour>
  </outline>
</glyph>
<glyph name="maiTri-thai.small" format="1">
  <advance width="0"/>
  <outline>
    <contour>
      <point x="-424" y="878" type="line" name="hr00"/>
      <point x="-324" y="878" type="line"/>
      <point x="-324" y="960" type="line" smooth="yes"/>
      <point x="-324" y="981"/>
      <point x="-314" y="994"/>
      <point x="-292" y="994" type="curve" smooth="yes"/>
      <point x="-274" y="994"/>
      <point x="-262" y="984"/>
      <point x="-262" y="956" type="curve" smooth="yes"/>
      <point x="-262" y="923" type="line"/>
      <point x="-185" y="923" type="line"/>
      <point x="-185" y="956" type="line" smooth="yes"/>
      <point x="-185" y="984"/>
      <point x="-173" y="994"/>
      <point x="-155" y="994" type="curve" smooth="yes"/>
      <point x="-133" y="994"/>
      <point x="-123" y="981"/>
      <point x="-123" y="960" type="curve" smooth="yes"/>
      <point x="-123" y="878" type="line"/>
      <point x="47" y="878" type="line"/>
      <point x="47" y="963" type="line"/>
      <point x="-24" y="963" type="line"/>
      <point x="-24" y="974" type="line" smooth="yes"/>
      <point x="-24" y="1037"/>
      <point x="-60" y="1080"/>
      <point x="-126" y="1080" type="curve" smooth="yes"/>
      <point x="-173" y="1080"/>
      <point x="-211" y="1057"/>
      <point x="-220" y="1009" type="curve"/>
      <point x="-226" y="1009" type="line"/>
      <point x="-237" y="1059"/>
      <point x="-278" y="1080"/>
      <point x="-321" y="1080" type="curve" smooth="yes"/>
      <point x="-388" y="1080"/>
      <point x="-424" y="1037"/>
      <point x="-424" y="974" type="curve" smooth="yes"/>
    </contour>
    <contour>
      <point x="0.0" y="800.0" type="move" name="_topright"/>
    </contour>
  </outline>
</glyph>
<glyph name="nikhahit-thai.narrow" format="1">
  <advance width="0"/>
  <outline>
    <contour>
      <point x="-159" y="691" type="curve" smooth="yes" name="hr00"/>
      <point x="-185" y="691"/>
      <point x="-201" y="704"/>
      <point x="-201" y="732" type="curve" smooth="yes"/>
      <point x="-201" y="742" type="line" smooth="yes"/>
      <point x="-201" y="770"/>
      <point x="-185" y="783"/>
      <point x="-159" y="783" type="curve" smooth="yes"/>
      <point x="-133" y="783"/>
      <point x="-117" y="770"/>
      <point x="-117" y="742" type="curve" smooth="yes"/>
      <point x="-117" y="732" type="line" smooth="yes"/>
      <point x="-117" y="704"/>
      <point x="-133" y="691"/>
    </contour>
    <contour>
      <point x="-159" y="608" type="curve" smooth="yes"/>
      <point x="-75" y="608"/>
      <point x="-21" y="665"/>
      <point x="-21" y="737" type="curve" smooth="yes"/>
      <point x="-21" y="809"/>
      <point x="-75" y="866"/>
      <point x="-159" y="866" type="curve" smooth="yes"/>
      <point x="-243" y="866"/>
      <point x="-297" y="809"/>
      <point x="-297" y="737" type="curve" smooth="yes"/>
      <point x="-297" y="665"/>
      <point x="-243" y="608"/>
    </contour>
    <contour>
      <point x="0.0" y="600.0" type="move" name="_topright"/>
    </contour>
    <contour>
      <point x="-97.0" y="840.0" type="move" name="topright"/>
    </contour>
  </outline>
</glyph>
<glyph name="noNu-thai_macronbelowcomb" format="1">
  <advance width="631"/>
  <outline>
    <contour>
      <point x="238" y="-12" type="curve" smooth="yes" name="hr00"/>
      <point x="339" y="-12"/>
      <point x="387" y="43"/>
      <point x="409" y="103" type="curve"/>
      <point x="416" y="103" type="line"/>
      <point x="418" y="33"/>
      <point x="450" y="0"/>
      <point x="509" y="0" type="curve" smooth="yes"/>
      <point x="598" y="0" type="line"/>
      <point x="598" y="115" type="line"/>
      <point x="549" y="115" type="line"/>
      <point x="549" y="554" type="line"/>
      <point x="401" y="554" type="line"/>
      <point x="401" y="194" type="line" smooth="yes"/>
      <point x="401" y="138"/>
      <point x="349" y="108"/>
      <point x="300" y="108" type="curve" smooth="yes"/>
      <point x="230" y="108"/>
      <point x="211" y="155"/>
      <point x="211" y="219" type="curve" smooth="yes"/>
      <point x="211" y="554" type="line"/>
      <point x="63" y="554" type="line"/>
      <point x="63" y="206" type="line" smooth="yes"/>
      <point x="63" y="67"/>
      <point x="124" y="-12"/>
    </contour>
    <contour>
      <point x="63" y="-207" type="line"/>
      <point x="598" y="-207" type="line"/>
      <point x="598" y="-104" type="line"/>
      <point x="63" y="-104" type="line"/>
    </contour>
    <contour>
      <point x="598.0" y="-167.0" type="move" name="bottomright"/>
    </contour>
    <contour>
      <point x="306.0" y="558.0" type="move" name="top"/>
    </contour>
    <contour>
      <point x="549.0" y="600.0" type="move" name="topright"/>
    </contour>
  </outline>
</glyph>
<glyph name="seven-thai.sups" format="1">
  <advance width="654"/>
  <outline>
    <contour>
      <point x="199" y="311" type="curve" smooth="yes" name="hr00"/>
      <point x="215" y="311"/>
      <point x="240" y="312"/>
      <point x="254" y="316" type="curve"/>
      <point x="240" y="414" type="line"/>
      <point x="233" y="412"/>
      <point x="225" y="411"/>
      <point x="220" y="411" type="curve" smooth="yes"/>
      <point x="169" y="411"/>
      <point x="156" y="440"/>
      <point x="156" y="495" type="curve" smooth="yes"/>
      <point x="156" y="552" type="line" smooth="yes"/>
      <point x="156" y="597"/>
      <point x="159" y="611"/>
      <point x="177" y="611" type="curve" smooth="yes"/>
      <point x="191" y="611"/>
      <point x="197" y="605"/>
      <point x="197" y="572" type="curve"/>
      <point x="270" y="572" type="line"/>
      <point x="270" y="605"/>
      <point x="280" y="611"/>
      <point x="292" y="611" type="curve" smooth="yes"/>
      <point x="302" y="611"/>
      <point x="310" y="605"/>
      <point x="310" y="589" type="curve" smooth="yes"/>
      <point x="310" y="320" type="line"/>
      <point x="439" y="320" type="line" smooth="yes"/>
      <point x="543" y="320"/>
      <point x="602" y="380"/>
      <point x="602" y="474" type="curve" smooth="yes"/>
      <point x="602" y="781" type="line"/>
      <point x="482" y="781" type="line"/>
      <point x="482" y="485" type="line" smooth="yes"/>
      <point x="482" y="437"/>
      <point x="468" y="408"/>
      <point x="439" y="408" type="curve" smooth="yes"/>
      <point x="430" y="408" type="line"/>
      <point x="430" y="585" type="line" smooth="yes"/>
      <point x="430" y="666"/>
      <point x="391" y="710"/>
      <point x="326" y="710" type="curve" smooth="yes"/>
      <point x="280" y="710"/>
      <point x="247" y="692"/>
      <point x="237" y="653" type="curve"/>
      <point x="231" y="653" type="line"/>
      <point x="222" y="692"/>
      <point x="187" y="710"/>
      <point x="144" y="710" type="curve" smooth="yes"/>
      <point x="61" y="710"/>
      <point x="29" y="639"/>
      <point x="29" y="519" type="curve" smooth="yes"/>
      <point x="29" y="384"/>
      <point x="91" y="311"/>
    </contour>
  </outline>
</glyph>
<glyph name="three-thai.sups" format="1">
  <advance width="570"/>
  <outline>
    <contour>
      <point x="215" y="311" type="curve" smooth="yes" name="hr00"/>
      <point x="230" y="311"/>
      <point x="252" y="312"/>
      <point x="270" y="316" type="curve"/>
      <point x="256" y="414" type="line"/>
      <point x="249" y="412"/>
      <point x="242" y="411"/>
      <point x="233" y="411" type="curve" smooth="yes"/>
      <point x="170" y="411"/>
      <point x="156" y="440"/>
      <point x="156" y="495" type="curve" smooth="yes"/>
      <point x="156" y="541" type="line" smooth="yes"/>
      <point x="156" y="583"/>
      <point x="166" y="611"/>
      <point x="192" y="611" type="curve" smooth="yes"/>
      <point x="221" y="611"/>
      <point x="222" y="587"/>
      <point x="222" y="565" type="curve" smooth="yes"/>
      <point x="222" y="467" type="line"/>
      <point x="334" y="467" type="line"/>
      <point x="334" y="565" type="line" smooth="yes"/>
      <point x="334" y="594"/>
      <point x="349" y="611"/>
      <point x="368" y="611" type="curve" smooth="yes"/>
      <point x="390" y="611"/>
      <point x="398" y="596"/>
      <point x="398" y="572" type="curve" smooth="yes"/>
      <point x="398" y="320" type="line"/>
      <point x="518" y="320" type="line"/>
      <point x="518" y="580" type="line" smooth="yes"/>
      <point x="518" y="666"/>
      <point x="473" y="710"/>
      <point x="393" y="710" type="curve" smooth="yes"/>
      <point x="327" y="710"/>
      <point x="295" y="680"/>
      <point x="284" y="653" type="curve"/>
      <point x="277" y="653" type="line"/>
      <point x="267" y="680"/>
      <point x="235" y="710"/>
      <point x="178" y="710" type="curve" smooth="yes"/>
      <point x="74" y="710"/>
      <point x="29" y="633"/>
      <point x="29" y="519" type="curve" smooth="yes"/>
      <point x="29" y="384"/>
      <point x="96" y="311"/>
    </contour>
  </outline>
</glyph>
<glyph name="zero-thai.sups" format="1">
  <advance width="448"/>
  <outline>
    <contour>
      <point x="224" y="409" type="curve" smooth="yes" name="hr00"/>
      <point x="185" y="409"/>
      <point x="156" y="428"/>
      <point x="156" y="468" type="curve" smooth="yes"/>
      <point x="156" y="552" type="line" smooth="yes"/>
      <point x="156" y="592"/>
      <point x="185" y="611"/>
      <point x="224" y="611" type="curve" smooth="yes"/>
      <point x="263" y="611"/>
      <point x="292" y="592"/>
      <point x="292" y="552" type="curve" smooth="yes"/>
      <point x="292" y="468" type="line" smooth="yes"/>
      <point x="292" y="428"/>
      <point x="263" y="409"/>
    </contour>
    <contour>
      <point x="224" y="310" type="curve" smooth="yes"/>
      <point x="342" y="310"/>
      <point x="419" y="391"/>
      <point x="419" y="510" type="curve" smooth="yes"/>
      <point x="419" y="629"/>
      <point x="342" y="710"/>
      <point x="224" y="710" type="curve" smooth="yes"/>
      <point x="106" y="710"/>
      <point x="29" y="629"/>
      <point x="29" y="510" type="curve" smooth="yes"/>
      <point x="29" y="391"/>
      <point x="106" y="310"/>
    </contour>
  </outline>
</glyph>
